# xmcd CD database file
# Copyright (C) 1993-1998 Ti Kan
#
# Track frame offsets:
#  182
#  17510
#  31587
#  44092
#
# Disc length: 707 seconds
#
# Revision: 1
# Processed by: cddbd v1.4b41PL1 Copyright (c) Steve Scherf et al.
# Submitted via: CDWizzard Release:4.35
#
DISCID=2502c104
DTITLE=Leann Rimes - Selected Offerings From Leann Rimes
DYEAR=1900
DGENRE=
TTITLE0=On The Side Of Angles
TTITLE1=God Bless America
TTITLE2=Clinging To A Saving Hand
TTITLE3=National Anthem (Acapella Version)
EXTD=
EXTT0=
EXTT1=
EXTT2=
EXTT3=
PLAYORDER=
